<?xml version="1.0" encoding="utf-8"?>
<!-- Generator: Adobe Illustrator 26.0.3, SVG Export Plug-In . SVG Version: 6.00 Build 0)  -->
<svg version="1.0" id="Layer_1" xmlns="http://www.w3.org/2000/svg" xmlns:xlink="http://www.w3.org/1999/xlink" x="0px" y="0px"
	 viewBox="0 0 302 232" style="enable-background:new 0 0 302 232;" xml:space="preserve">
<style type="text/css">
	.st0{fill:#FF0000;}
	.st1{fill:none;}
</style>
<g id="layer1">
	<path id="path8305" class="st0" d="M151,28.6l-15.9,17.7c5.6,8,7.7,17.6,7.7,22.5c-4.8-8.4-9.9-10.8-15.1-14.2l-10.2,11.4
		c13.9,4.8,22.5,21.3,22.5,38.4c0,8.2-2.8,27.9-22.5,27v-0.1c-14.5-1.7-28.1-18.6-29.3-36.9s6.5-36.1,19.3-50.9h0
		c-24.2,14.4-39.8,39.7-41.8,67.7c0,0.7-0.1,1.4-0.1,2.1l0,0c0,0.7-0.1,1.4-0.1,2.2c0,0.7,0,1.5,0,2.2c0,47.3,38.4,85.7,85.7,85.6
		c47.3,0,85.6-38.3,85.6-85.6c0-2.2-0.1-4.4-0.2-6.6c-2.1-28-17.7-53.3-41.8-67.7h-0.1c12.8,14.8,20.6,32.6,19.4,50.9
		s-14.8,35.2-29.3,36.9v0.1c-19.6,0.9-22.5-18.8-22.5-27c0-17.1,8.5-33.6,22.5-38.4l-10.3-11.4c-5.1,3.5-10.3,5.9-15.1,14.2
		c0-4.8,2.1-14.5,7.7-22.5L151,28.6z"/>
</g>
<rect x="51" y="16" class="st1" width="200" height="200"/>
</svg>
